# xmcd
#
# Track frame offsets: 
#        150
#        17248
#        33884
#        57238
#        76650
#        100398
#        132706
#        154936
#        181146
#        200173
#        217466
#        245158
#        280456
#        299030
#        315616
#
# Disc length: 4442 seconds
#
# Revision: 0
# Processed by: cddbd v1.5.2PL0 Copyright (c) Steve Scherf et al.
# Submitted via: ExactAudioCopy v0.99pb4
#
DISCID=f111580f
DTITLE=Michael Wycoff - Come To My World | On The Line
DYEAR=2010
DGENRE=R&B
TTITLE0=Feel My Love
TTITLE1=Someone Standing By
TTITLE2=One Alone
TTITLE3=Do Ya Think
TTITLE4=Come To My World
TTITLE5=Just As Long
TTITLE6=Love Makes Me Sing
TTITLE7=On The Line
TTITLE8=No Easy Way
TTITLE9=You've Got It Coming
TTITLE10=So Close
TTITLE11=Tell Me Love
TTITLE12=I'll Do Anything For You
TTITLE13=Do It To Me Baby
TTITLE14=You Are Everything
EXTD=
EXTT0=
EXTT1=
EXTT2=
EXTT3=
EXTT4=
EXTT5=
EXTT6=
EXTT7=
EXTT8=
EXTT9=
EXTT10=
EXTT11=
EXTT12=
EXTT13=
EXTT14=
PLAYORDER=
